<svg width="516" height="200" viewBox="0 0 516 200" fill="none" xmlns="http://www.w3.org/2000/svg">
<path fill-rule="evenodd" clip-rule="evenodd" d="M29.1609 36.2748C29.1609 34.0104 30.9929 32.1748 33.2528 32.1748H68.0648C75.4095 32.1748 81.3635 38.1405 81.3635 45.4996V68.1223C81.3635 70.1036 82.9665 71.7097 84.9439 71.7097C86.9214 71.7097 88.5244 70.1036 88.5244 68.1223V45.4996C88.5244 34.178 79.3643 25 68.0648 25H33.2528C27.0381 25 22 30.0479 22 36.2748C22 42.5017 27.0381 47.5495 33.2528 47.5495H54.1629C56.1403 47.5495 57.7433 45.9434 57.7433 43.9621C57.7433 41.9808 56.1403 40.3747 54.1629 40.3747H33.2528C30.9929 40.3747 29.1609 38.5391 29.1609 36.2748ZM73.1338 43.9621C73.1338 41.9808 71.5308 40.3747 69.5534 40.3747C67.576 40.3747 65.973 41.9808 65.973 43.9621V69.8878C65.973 75.3352 68.1369 80.5586 71.987 84.4048L76.8022 89.2149C79.6604 92.0702 83.5318 93.6735 87.5679 93.6735H91.5628C93.8227 93.6735 95.6547 95.5091 95.6547 97.7734C95.6547 100.038 93.8227 101.873 91.5628 101.873H82.901C79.525 101.873 76.2868 100.532 73.8961 98.144L61.6525 85.913C59.1499 83.413 57.7433 80.0178 57.7433 76.4769V67.0471C57.7433 60.8075 52.695 55.7494 46.4676 55.7494C40.2402 55.7494 35.1919 60.8075 35.1919 67.0471V92.2431C35.1919 97.5617 30.8887 101.873 25.5804 101.873C23.603 101.873 22 103.479 22 105.461C22 107.442 23.603 109.048 25.5804 109.048C34.8435 109.048 42.3528 101.524 42.3528 92.2431V67.0471C42.3528 64.7701 44.195 62.9242 46.4676 62.9242C48.7402 62.9242 50.5824 64.7701 50.5824 67.0471V76.4769C50.5824 81.9244 52.7464 87.1478 56.5965 90.9939L68.8402 103.225C72.5732 106.954 77.6295 109.048 82.901 109.048H91.5628C97.7775 109.048 102.816 104 102.816 97.7734C102.816 91.5466 97.7775 86.4987 91.5628 86.4987H87.5679C85.4273 86.4987 83.374 85.6483 81.8581 84.134L78.6773 80.9565L77.043 79.3238C74.5404 76.8238 73.1338 73.4286 73.1338 69.8878V43.9621ZM156.867 105.211C156.867 107.33 158.564 109.048 160.659 109.048C162.753 109.048 164.451 107.33 164.451 105.211V83.5133C164.451 76.2878 170.24 70.4304 177.38 70.4304H198.65C205.79 70.4304 211.579 76.2878 211.579 83.5133V105.211C211.579 107.33 213.277 109.048 215.371 109.048C217.466 109.048 219.163 107.33 219.163 105.211V28.8372C219.163 26.718 217.466 25 215.371 25C213.277 25 211.579 26.718 211.579 28.8372V50.4528C211.579 57.6783 205.79 63.5358 198.65 63.5358H177.38C170.24 63.5358 164.451 57.6783 164.451 50.4528V28.8372C164.451 26.718 162.753 25 160.659 25C158.564 25 156.867 26.718 156.867 28.8372V105.211ZM316.932 109.048C309.791 109.048 304.002 103.191 304.002 95.9652V38.083C304.002 30.8575 309.791 25 316.932 25H348.778C350.659 25 352.185 26.5434 352.185 28.4473C352.185 30.3512 350.659 31.8946 348.778 31.8946H324.516C317.375 31.8946 311.586 37.752 311.586 44.9776V50.4528C311.586 57.6783 317.375 63.5358 324.516 63.5358H346.223C348.104 63.5358 349.63 65.0792 349.63 66.9831C349.63 68.887 348.104 70.4304 346.223 70.4304H324.516C317.375 70.4304 311.586 76.2878 311.586 83.5133V89.0706C311.586 96.2962 317.375 102.154 324.516 102.154H349.589C351.471 102.154 352.996 103.697 352.996 105.601C352.996 107.505 351.471 109.048 349.589 109.048H316.932ZM435.633 106.542C435.105 108.044 433.699 109.048 432.123 109.048C429.537 109.048 427.738 106.448 428.622 103.989L455.632 28.8566C456.464 26.5412 458.639 25 461.074 25C463.509 25 465.684 26.5412 466.516 28.8567L493.527 103.989C494.411 106.448 492.611 109.048 490.026 109.048C488.449 109.048 487.043 108.044 486.515 106.542L478.493 83.7198C478.42 83.7246 478.345 83.727 478.271 83.727H443.878C443.803 83.727 443.729 83.7246 443.655 83.7198L435.633 106.542ZM461.453 35.2432L476.072 76.8325H446.076L460.695 35.2432C460.752 35.0809 460.904 34.9725 461.074 34.9725C461.244 34.9725 461.396 35.0809 461.453 35.2432Z" fill="url(#paint0_linear_8_58)"/>
<path fill-rule="evenodd" clip-rule="evenodd" d="M350.018 174.868C348.787 174.868 347.79 173.871 347.79 172.641V148.101C347.79 146.87 348.787 145.873 350.018 145.873C351.248 145.873 352.245 146.87 352.245 148.101V172.641C352.245 173.871 351.248 174.868 350.018 174.868ZM350.055 141.041C349.187 141.041 348.438 140.745 347.809 140.153C347.192 139.562 346.884 138.851 346.884 138.02C346.884 137.19 347.192 136.479 347.809 135.887C348.438 135.296 349.187 135 350.055 135C350.924 135 351.666 135.296 352.283 135.887C352.912 136.479 353.227 137.19 353.227 138.02C353.227 138.851 352.912 139.562 352.283 140.153C351.666 140.745 350.924 141.041 350.055 141.041ZM404.63 173.603C406.606 174.849 408.903 175.472 411.52 175.472C414.138 175.472 416.428 174.849 418.391 173.603C420.367 172.358 421.903 170.615 422.997 168.375C424.105 166.134 424.659 163.517 424.659 160.522C424.659 157.501 424.105 154.865 422.997 152.612C421.903 150.36 420.367 148.61 418.391 147.364C416.428 146.119 414.138 145.496 411.52 145.496C408.903 145.496 406.606 146.119 404.63 147.364C402.667 148.61 401.132 150.36 400.024 152.612C398.929 154.865 398.382 157.501 398.382 160.522C398.382 163.517 398.929 166.134 400.024 168.375C401.132 170.615 402.667 172.358 404.63 173.603ZM416.428 169.941C415.145 170.961 413.509 171.47 411.52 171.47C409.532 171.47 407.896 170.961 406.612 169.941C405.329 168.922 404.378 167.582 403.762 165.92C403.145 164.259 402.837 162.46 402.837 160.522C402.837 158.584 403.145 156.778 403.762 155.104C404.378 153.43 405.329 152.077 406.612 151.045C407.896 150.014 409.532 149.498 411.52 149.498C413.509 149.498 415.145 150.014 416.428 151.045C417.712 152.077 418.662 153.43 419.279 155.104C419.895 156.778 420.204 158.584 420.204 160.522C420.204 162.46 419.895 164.259 419.279 165.92C418.662 167.582 417.712 168.922 416.428 169.941ZM475.251 172.641V157.426C475.251 155.74 475.572 154.305 476.213 153.122C476.855 151.939 477.73 151.039 478.837 150.423C479.957 149.806 481.228 149.498 482.65 149.498C484.714 149.498 486.338 150.139 487.521 151.423C488.704 152.694 489.295 154.468 489.295 156.746V172.641C489.295 173.871 490.292 174.868 491.522 174.868C492.753 174.868 493.75 173.871 493.75 172.641V156.444C493.75 153.978 493.341 151.939 492.523 150.328C491.705 148.705 490.56 147.497 489.087 146.704C487.615 145.898 485.897 145.496 483.934 145.496C481.744 145.496 479.957 145.949 478.573 146.855C477.231 147.721 476.22 148.86 475.54 150.27C475.501 150.351 475.42 150.404 475.33 150.404C475.203 150.404 475.1 150.301 475.1 150.173V148.025C475.1 146.837 474.136 145.873 472.948 145.873C471.759 145.873 470.796 146.837 470.796 148.025V172.641C470.796 173.871 471.793 174.868 473.023 174.868C474.253 174.868 475.251 173.871 475.251 172.641ZM301.752 147.761C301.752 146.718 300.907 145.873 299.864 145.873H295.561V141.154C295.561 139.924 294.563 138.926 293.333 138.926C292.103 138.926 291.106 139.924 291.106 141.154V145.873H288.614C287.571 145.873 286.726 146.718 286.726 147.761C286.726 148.803 287.571 149.648 288.614 149.648H291.106V167.77C291.106 169.457 291.496 170.854 292.276 171.961C293.069 173.068 294.063 173.893 295.258 174.434C296.467 174.975 297.7 175.246 298.958 175.246C299.789 175.246 300.475 175.183 301.016 175.057C301.751 174.903 302.157 174.171 301.991 173.439L301.545 171.466C301.45 171.048 301.04 170.782 300.62 170.866C300.305 170.916 299.902 170.942 299.411 170.942C298.757 170.942 298.134 170.841 297.543 170.64C296.964 170.426 296.485 170.01 296.108 169.394C295.743 168.764 295.561 167.821 295.561 166.562V149.648H299.864C300.907 149.648 301.752 148.803 301.752 147.761ZM237.191 163.013V148.101C237.191 146.87 238.189 145.873 239.419 145.873C240.649 145.873 241.646 146.87 241.646 148.101V172.641C241.646 173.871 240.649 174.868 239.419 174.868C238.189 174.868 237.191 173.871 237.191 172.641V170.144C237.191 170.043 237.109 169.96 237.007 169.96C236.935 169.96 236.87 170.002 236.839 170.067C236.158 171.493 235.118 172.71 233.718 173.717C232.283 174.736 230.471 175.246 228.281 175.246C226.469 175.246 224.858 174.849 223.449 174.056C222.039 173.251 220.932 172.043 220.127 170.432C219.321 168.809 218.918 166.764 218.918 164.297V148.101C218.918 146.87 219.916 145.873 221.146 145.873C222.376 145.873 223.373 146.87 223.373 148.101V163.995C223.373 166.109 223.965 167.796 225.148 169.054C226.343 170.312 227.866 170.942 229.716 170.942C230.823 170.942 231.95 170.659 233.095 170.092C234.253 169.526 235.222 168.658 236.002 167.487C236.795 166.317 237.191 164.826 237.191 163.013ZM171.422 138.435C171.422 137.205 170.425 136.208 169.195 136.208C167.965 136.208 166.967 137.205 166.967 138.435V172.641C166.967 173.871 167.965 174.868 169.195 174.868C170.425 174.868 171.422 173.871 171.422 172.641V138.435ZM107.692 175.472C105.074 175.472 102.778 174.849 100.802 173.603C98.8387 172.358 97.3034 170.615 96.1959 168.375C95.1011 166.134 94.5536 163.517 94.5536 160.522C94.5536 157.501 95.1011 154.865 96.1959 152.612C97.3034 150.36 98.8387 148.61 100.802 147.364C102.778 146.119 105.074 145.496 107.692 145.496C110.31 145.496 112.6 146.119 114.563 147.364C116.539 148.61 118.074 150.36 119.169 152.612C120.277 154.865 120.83 157.501 120.83 160.522C120.83 163.517 120.277 166.134 119.169 168.375C118.074 170.615 116.539 172.358 114.563 173.603C112.6 174.849 110.31 175.472 107.692 175.472ZM107.692 171.47C109.68 171.47 111.316 170.961 112.6 169.941C113.884 168.922 114.834 167.582 115.45 165.92C116.067 164.259 116.375 162.46 116.375 160.522C116.375 158.584 116.067 156.778 115.45 155.104C114.834 153.43 113.884 152.077 112.6 151.045C111.316 150.014 109.68 149.498 107.692 149.498C105.704 149.498 104.068 150.014 102.784 151.045C101.5 152.077 100.55 153.43 99.9336 155.104C99.3169 156.778 99.0086 158.584 99.0086 160.522C99.0086 162.46 99.3169 164.259 99.9336 165.92C100.55 167.582 101.5 168.922 102.784 169.941C104.068 170.961 105.704 171.47 107.692 171.47ZM43.86 143.865C44.3746 144.943 45.3244 145.873 46.5194 145.873C47.8515 145.873 48.9543 144.751 48.5741 143.474C48.273 142.463 47.7958 141.52 47.1425 140.644C46.0099 139.109 44.4746 137.9 42.5365 137.019C40.5985 136.126 38.3836 135.679 35.8919 135.679C33.4253 135.679 31.1915 136.132 29.1905 137.038C27.2022 137.932 25.6165 139.19 24.4335 140.814C23.2632 142.425 22.678 144.312 22.678 146.477C22.678 149.082 23.5589 151.19 25.3208 152.801C27.0826 154.411 29.4737 155.651 32.494 156.519L37.251 157.879C38.6101 158.256 39.8749 158.697 41.0453 159.2C42.2156 159.703 43.1595 160.358 43.8768 161.163C44.5941 161.969 44.9528 163.013 44.9528 164.297C44.9528 165.706 44.5375 166.939 43.7069 167.997C42.8763 169.041 41.75 169.859 40.3279 170.451C38.9059 171.029 37.3013 171.319 35.5143 171.319C33.979 171.319 32.5443 171.092 31.2104 170.639C29.889 170.174 28.7941 169.469 27.9258 168.525C27.5341 168.087 27.2189 167.597 26.9801 167.054C26.4733 165.901 25.4864 164.901 24.227 164.901C22.8187 164.901 21.6754 166.112 22.0838 167.46C22.4136 168.548 22.9074 169.551 23.5652 170.469C24.723 172.068 26.3087 173.314 28.3222 174.207C30.3483 175.101 32.7457 175.547 35.5143 175.547C38.4843 175.547 41.0075 175.05 43.084 174.056C45.173 173.062 46.7587 171.722 47.841 170.035C48.9358 168.349 49.4833 166.461 49.4833 164.372C49.4833 162.56 49.112 161.031 48.3695 159.785C47.627 158.539 46.6832 157.52 45.538 156.727C44.4054 155.922 43.2161 155.286 41.9702 154.82C40.7369 154.355 39.6169 153.99 38.6101 153.726L34.6837 152.668C33.9664 152.48 33.1799 152.234 32.3241 151.932C31.4684 151.618 30.6504 151.221 29.8701 150.743C29.0899 150.252 28.448 149.642 27.9447 148.912C27.4539 148.169 27.2085 147.282 27.2085 146.25C27.2085 145.017 27.5608 143.916 28.2656 142.947C28.9829 141.978 29.9771 141.216 31.2481 140.663C32.5318 140.109 34.0293 139.832 35.7408 139.832C38.0816 139.832 40.0574 140.361 41.6682 141.418C42.6626 142.07 43.3932 142.886 43.86 143.865Z" fill="#00070F"/>
<defs>
<linearGradient id="paint0_linear_8_58" x1="493.755" y1="25" x2="467.814" y2="182.483" gradientUnits="userSpaceOnUse">
<stop stop-color="#01F5E7"/>
<stop offset="1" stop-color="#034694"/>
</linearGradient>
</defs>
</svg>
