<svg width="200" height="200" viewBox="0 0 200 200" fill="none" xmlns="http://www.w3.org/2000/svg">
<path fill-rule="evenodd" clip-rule="evenodd" d="M63.3295 32.1366C60.4517 32.1366 58.1188 34.474 58.1188 37.3575C58.1188 40.2409 60.4517 42.5784 63.3295 42.5784H89.9567C92.4747 42.5784 94.516 44.6236 94.516 47.1466C94.516 49.6696 92.4747 51.7149 89.9567 51.7149H63.3295C55.4155 51.7149 49 45.2869 49 37.3575C49 29.428 55.4155 23 63.3295 23H107.66C122.049 23 133.713 34.6874 133.713 49.1044V77.9125C133.713 80.4355 131.672 82.4808 129.154 82.4808C126.636 82.4808 124.594 80.4355 124.594 77.9125V49.1044C124.594 39.7333 117.012 32.1366 107.66 32.1366H63.3295ZM109.555 42.5784C112.073 42.5784 114.115 44.6236 114.115 47.1466V80.1608C114.115 84.6697 115.906 88.9932 119.093 92.1768L121.174 94.2558L125.224 98.3021C127.155 100.23 129.769 101.313 132.495 101.313H137.582C145.496 101.313 151.912 107.741 151.912 115.671C151.912 123.6 145.496 130.028 137.582 130.028H126.552C119.839 130.028 113.401 127.362 108.647 122.613L93.0557 107.038C88.1529 102.14 85.3973 95.4883 85.3973 88.5515V76.5433C85.3973 73.6438 83.0513 71.2932 80.1574 71.2932C77.2635 71.2932 74.9175 73.6438 74.9175 76.5433V108.628C74.9175 120.447 65.3551 130.028 53.5594 130.028C51.0413 130.028 49 127.983 49 125.46C49 122.937 51.0413 120.892 53.5594 120.892C60.319 120.892 65.7987 115.401 65.7987 108.628V76.5433C65.7987 68.5978 72.2273 62.1567 80.1574 62.1567C88.0875 62.1567 94.516 68.5978 94.516 76.5433V88.5515C94.516 93.0604 96.3072 97.3839 99.494 100.567L115.085 116.143C118.13 119.184 122.253 120.892 126.552 120.892H137.582C140.46 120.892 142.793 118.554 142.793 115.671C142.793 112.787 140.46 110.45 137.582 110.45H132.495C127.355 110.45 122.426 108.408 118.786 104.772L112.654 98.6469C107.751 93.7491 104.996 87.0976 104.996 80.1608V47.1466C104.996 44.6236 107.037 42.5784 109.555 42.5784Z" fill="#00070F"/>
<path fill-rule="evenodd" clip-rule="evenodd" d="M49 159.875C49 160.338 49.3704 160.712 49.8272 160.712C50.2841 160.712 50.6545 160.338 50.6545 159.875V153.3H54.8748C55.1522 153.3 55.4199 153.289 55.6777 153.267C55.6767 153.4 55.708 153.537 55.7776 153.668L59.3 160.268C59.4462 160.542 59.7293 160.712 60.0372 160.712C60.6731 160.712 61.0772 160.024 60.7727 159.459L57.267 152.955C57.5549 152.86 57.8251 152.745 58.0776 152.61C58.9387 152.151 59.5876 151.512 60.024 150.695C60.4664 149.877 60.6876 148.934 60.6876 147.866C60.6876 146.797 60.4664 145.851 60.024 145.028C59.5876 144.198 58.9358 143.55 58.0687 143.085C57.2076 142.613 56.1341 142.378 54.8482 142.378H51.8205C50.2628 142.378 49 143.655 49 145.232V159.875ZM50.6545 151.769H54.8305C55.7743 151.769 56.5588 151.611 57.184 151.294C57.8151 150.978 58.284 150.527 58.5907 149.943C58.9034 149.358 59.0597 148.665 59.0597 147.866C59.0597 147.066 58.9034 146.367 58.5907 145.771C58.2781 145.168 57.8063 144.702 57.1751 144.374C56.5499 144.046 55.7595 143.882 54.804 143.882H53.475C51.9173 143.882 50.6545 145.159 50.6545 146.736V151.769ZM79.248 160.712C78.7911 160.712 78.4207 160.338 78.4207 159.875V143.215C78.4207 142.752 78.7911 142.378 79.248 142.378C79.7048 142.378 80.0752 142.752 80.0752 143.215V147.93C80.0752 149.506 81.338 150.784 82.8957 150.784H87.5355C89.0933 150.784 90.3561 149.506 90.3561 147.93V143.215C90.3561 142.752 90.7264 142.378 91.1833 142.378C91.6402 142.378 92.0106 142.752 92.0106 143.215V159.875C92.0106 160.338 91.6402 160.712 91.1833 160.712C90.7264 160.712 90.3561 160.338 90.3561 159.875V155.142C90.3561 153.566 89.0933 152.288 87.5355 152.288H82.8957C81.338 152.288 80.0752 153.566 80.0752 155.142V159.875C80.0752 160.338 79.7048 160.712 79.248 160.712ZM110.518 157.858C110.518 159.435 111.781 160.712 113.338 160.712H120.462C120.873 160.712 121.206 160.376 121.206 159.96C121.206 159.545 120.873 159.208 120.462 159.208H114.993C113.435 159.208 112.172 157.931 112.172 156.354V155.142C112.172 153.566 113.435 152.288 114.993 152.288H119.728C120.139 152.288 120.471 151.951 120.471 151.536C120.471 151.121 120.139 150.784 119.728 150.784H114.993C113.435 150.784 112.172 149.506 112.172 147.93V146.736C112.172 145.159 113.435 143.882 114.993 143.882H120.286C120.696 143.882 121.029 143.545 121.029 143.13C121.029 142.714 120.696 142.378 120.286 142.378H113.338C111.781 142.378 110.518 143.655 110.518 145.232V157.858ZM138.467 160.712C138.811 160.712 139.118 160.493 139.233 160.166L140.983 155.187C140.999 155.188 141.015 155.189 141.031 155.189H148.534C148.55 155.189 148.566 155.188 148.583 155.187L150.332 160.166C150.448 160.493 150.754 160.712 151.098 160.712C151.662 160.712 152.055 160.145 151.862 159.609L145.97 143.219C145.788 142.714 145.314 142.378 144.783 142.378C144.251 142.378 143.777 142.714 143.595 143.219L137.703 159.609C137.51 160.145 137.903 160.712 138.467 160.712ZM148.054 153.685L144.865 144.612C144.853 144.577 144.82 144.553 144.783 144.553C144.746 144.553 144.712 144.577 144.7 144.612L141.511 153.685H148.054Z" fill="#00070F"/>
<path fill-rule="evenodd" clip-rule="evenodd" d="M120.555 176.697C120.287 176.697 120.07 176.479 120.07 176.211V170.858C120.07 170.589 120.287 170.372 120.555 170.372C120.824 170.372 121.041 170.589 121.041 170.858V176.211C121.041 176.479 120.824 176.697 120.555 176.697ZM120.564 169.318C120.374 169.318 120.211 169.253 120.074 169.124C119.939 168.995 119.872 168.84 119.872 168.659C119.872 168.478 119.939 168.323 120.074 168.194C120.211 168.065 120.374 168 120.564 168C120.753 168 120.915 168.065 121.05 168.194C121.187 168.323 121.256 168.478 121.256 168.659C121.256 168.84 121.187 168.995 121.05 169.124C120.915 169.253 120.753 169.318 120.564 169.318ZM132.469 176.421C132.9 176.693 133.401 176.829 133.972 176.829C134.543 176.829 135.043 176.693 135.471 176.421C135.902 176.149 136.237 175.769 136.476 175.28C136.717 174.792 136.838 174.221 136.838 173.567C136.838 172.909 136.717 172.333 136.476 171.842C136.237 171.351 135.902 170.969 135.471 170.697C135.043 170.425 134.543 170.29 133.972 170.29C133.401 170.29 132.9 170.425 132.469 170.697C132.041 170.969 131.706 171.351 131.464 171.842C131.225 172.333 131.106 172.909 131.106 173.567C131.106 174.221 131.225 174.792 131.464 175.28C131.706 175.769 132.041 176.149 132.469 176.421ZM135.043 175.622C134.763 175.845 134.406 175.956 133.972 175.956C133.538 175.956 133.181 175.845 132.901 175.622C132.621 175.4 132.414 175.108 132.28 174.745C132.145 174.383 132.078 173.99 132.078 173.567C132.078 173.145 132.145 172.751 132.28 172.386C132.414 172.02 132.621 171.725 132.901 171.5C133.181 171.275 133.538 171.163 133.972 171.163C134.406 171.163 134.763 171.275 135.043 171.5C135.323 171.725 135.53 172.02 135.664 172.386C135.799 172.751 135.866 173.145 135.866 173.567C135.866 173.99 135.799 174.383 135.664 174.745C135.53 175.108 135.323 175.4 135.043 175.622ZM147.874 176.211V172.892C147.874 172.524 147.944 172.211 148.084 171.953C148.224 171.695 148.415 171.499 148.657 171.364C148.901 171.23 149.178 171.163 149.489 171.163C149.939 171.163 150.293 171.303 150.551 171.583C150.809 171.86 150.938 172.247 150.938 172.744V176.211C150.938 176.48 151.156 176.697 151.424 176.697C151.692 176.697 151.91 176.48 151.91 176.211V172.678C151.91 172.14 151.821 171.695 151.642 171.344C151.464 170.99 151.214 170.726 150.893 170.553C150.572 170.377 150.197 170.29 149.769 170.29C149.291 170.29 148.901 170.388 148.599 170.586C148.306 170.775 148.086 171.023 147.938 171.331C147.929 171.349 147.911 171.36 147.892 171.36C147.864 171.36 147.841 171.338 147.841 171.31V170.841C147.841 170.582 147.631 170.372 147.372 170.372C147.113 170.372 146.903 170.582 146.903 170.841V176.211C146.903 176.48 147.12 176.697 147.389 176.697C147.657 176.697 147.874 176.48 147.874 176.211ZM110.027 170.784C110.027 170.556 109.842 170.372 109.615 170.372H108.676V169.342C108.676 169.074 108.458 168.856 108.19 168.856C107.922 168.856 107.704 169.074 107.704 169.342V170.372H107.161C106.933 170.372 106.749 170.556 106.749 170.784C106.749 171.011 106.933 171.195 107.161 171.195H107.704V175.149C107.704 175.517 107.789 175.821 107.959 176.063C108.132 176.304 108.349 176.484 108.61 176.602C108.874 176.72 109.143 176.779 109.417 176.779C109.598 176.779 109.748 176.766 109.866 176.738C110.026 176.705 110.115 176.545 110.079 176.385L109.981 175.955C109.961 175.864 109.871 175.806 109.78 175.824C109.711 175.835 109.623 175.84 109.516 175.84C109.373 175.84 109.237 175.819 109.108 175.775C108.982 175.728 108.878 175.637 108.795 175.503C108.716 175.366 108.676 175.16 108.676 174.885V171.195H109.615C109.842 171.195 110.027 171.011 110.027 170.784ZM95.943 174.111V170.858C95.943 170.589 96.1605 170.372 96.4289 170.372C96.6972 170.372 96.9148 170.589 96.9148 170.858V176.211C96.9148 176.479 96.6972 176.697 96.4289 176.697C96.1605 176.697 95.943 176.479 95.943 176.211V175.667C95.943 175.644 95.925 175.626 95.9028 175.626C95.8871 175.626 95.8729 175.636 95.8661 175.65C95.7176 175.961 95.4906 176.226 95.1853 176.446C94.8723 176.668 94.477 176.779 93.9993 176.779C93.604 176.779 93.2526 176.693 92.9451 176.52C92.6376 176.344 92.3961 176.081 92.2204 175.729C92.0447 175.375 91.9568 174.929 91.9568 174.391V170.858C91.9568 170.589 92.1744 170.372 92.4427 170.372C92.7111 170.372 92.9286 170.589 92.9286 170.858V174.325C92.9286 174.786 93.0577 175.154 93.3157 175.429C93.5765 175.703 93.9087 175.841 94.3123 175.841C94.5538 175.841 94.7996 175.779 95.0494 175.655C95.3019 175.532 95.5133 175.342 95.6835 175.087C95.8565 174.832 95.943 174.506 95.943 174.111ZM81.5957 168.749C81.5957 168.481 81.3782 168.264 81.1098 168.264C80.8415 168.264 80.6239 168.481 80.6239 168.749V176.211C80.6239 176.479 80.8415 176.697 81.1098 176.697C81.3782 176.697 81.5957 176.479 81.5957 176.211V168.749ZM67.6933 176.829C67.1223 176.829 66.6213 176.693 66.1903 176.421C65.762 176.149 65.4271 175.769 65.1855 175.28C64.9467 174.792 64.8272 174.221 64.8272 173.567C64.8272 172.909 64.9467 172.333 65.1855 171.842C65.4271 171.351 65.762 170.969 66.1903 170.697C66.6213 170.425 67.1223 170.29 67.6933 170.29C68.2643 170.29 68.764 170.425 69.1922 170.697C69.6232 170.969 69.9582 171.351 70.197 171.842C70.4386 172.333 70.5594 172.909 70.5594 173.567C70.5594 174.221 70.4386 174.792 70.197 175.28C69.9582 175.769 69.6232 176.149 69.1922 176.421C68.764 176.693 68.2643 176.829 67.6933 176.829ZM67.6933 175.956C68.1271 175.956 68.4839 175.845 68.764 175.622C69.044 175.4 69.2512 175.108 69.3858 174.745C69.5203 174.383 69.5875 173.99 69.5875 173.567C69.5875 173.145 69.5203 172.751 69.3858 172.386C69.2512 172.02 69.044 171.725 68.764 171.5C68.4839 171.275 68.1271 171.163 67.6933 171.163C67.2596 171.163 66.9027 171.275 66.6226 171.5C66.3426 171.725 66.1354 172.02 66.0008 172.386C65.8663 172.751 65.7991 173.145 65.7991 173.567C65.7991 173.99 65.8663 174.383 66.0008 174.745C66.1354 175.108 66.3426 175.4 66.6226 175.622C66.9027 175.845 67.2596 175.956 67.6933 175.956ZM53.7687 169.934C53.8809 170.169 54.0881 170.372 54.3488 170.372C54.6394 170.372 54.88 170.127 54.797 169.849C54.7313 169.628 54.6272 169.422 54.4847 169.231C54.2376 168.896 53.9027 168.633 53.4799 168.441C53.0572 168.246 52.574 168.148 52.0304 168.148C51.4924 168.148 51.0051 168.247 50.5686 168.445C50.1348 168.64 49.7889 168.914 49.5309 169.268C49.2756 169.62 49.1479 170.031 49.1479 170.504C49.1479 171.072 49.3401 171.532 49.7244 171.883C50.1087 172.235 50.6304 172.505 51.2892 172.694L52.3269 172.991C52.6234 173.073 52.8993 173.169 53.1546 173.279C53.4099 173.389 53.6158 173.532 53.7723 173.707C53.9288 173.883 54.007 174.111 54.007 174.391C54.007 174.698 53.9164 174.967 53.7353 175.198C53.5541 175.426 53.3084 175.604 52.9982 175.733C52.6879 175.86 52.3379 175.923 51.9481 175.923C51.6132 175.923 51.3002 175.873 51.0092 175.775C50.7209 175.673 50.4821 175.519 50.2927 175.313C50.2072 175.218 50.1385 175.111 50.0864 174.992C49.9758 174.741 49.7605 174.523 49.4858 174.523C49.1786 174.523 48.9292 174.787 49.0183 175.081C49.0902 175.318 49.1979 175.537 49.3414 175.737C49.594 176.086 49.9399 176.358 50.3792 176.553C50.8211 176.748 51.3441 176.845 51.9481 176.845C52.596 176.845 53.1464 176.737 53.5994 176.52C54.0551 176.303 54.401 176.011 54.6371 175.643C54.8759 175.275 54.9953 174.863 54.9953 174.407C54.9953 174.012 54.9144 173.679 54.7524 173.407C54.5904 173.135 54.3845 172.913 54.1347 172.74C53.8876 172.564 53.6282 172.425 53.3564 172.324C53.0874 172.222 52.843 172.143 52.6234 172.085L51.7669 171.854C51.6104 171.813 51.4388 171.76 51.2522 171.694C51.0655 171.625 50.887 171.539 50.7168 171.434C50.5466 171.327 50.4066 171.194 50.2968 171.035C50.1897 170.873 50.1362 170.679 50.1362 170.454C50.1362 170.185 50.2131 169.945 50.3668 169.734C50.5233 169.522 50.7402 169.356 51.0174 169.235C51.2975 169.115 51.6241 169.054 51.9975 169.054C52.5081 169.054 52.9391 169.169 53.2905 169.4C53.5074 169.542 53.6668 169.72 53.7687 169.934Z" fill="#00070F"/>
</svg>
