<svg width="200" height="200" viewBox="0 0 200 200" fill="none" xmlns="http://www.w3.org/2000/svg">
<path fill-rule="evenodd" clip-rule="evenodd" d="M45.8861 35.3171C41.6915 35.3171 38.2911 38.7241 38.2911 42.9268C38.2911 47.1296 41.6915 50.5366 45.8861 50.5366H84.6968C88.367 50.5366 91.3423 53.5177 91.3423 57.1952C91.3423 60.8726 88.367 63.8537 84.6968 63.8537H45.8861C34.351 63.8537 25 54.4844 25 42.9268C25 31.3693 34.351 22 45.8861 22H110.5C131.473 22 148.474 39.035 148.474 60.0488V102.038C148.474 105.716 145.499 108.697 141.829 108.697C138.159 108.697 135.183 105.716 135.183 102.038V60.0488C135.183 46.3898 124.132 35.3171 110.5 35.3171H45.8861ZM113.263 50.5366C116.933 50.5366 119.908 53.5177 119.908 57.1952V105.315C119.908 111.887 122.519 118.189 127.164 122.829L130.198 125.86L136.101 131.757C138.915 134.568 142.726 136.146 146.699 136.146H154.114C165.649 136.146 175 145.516 175 157.073C175 168.631 165.649 178 154.114 178H138.037C128.253 178 118.868 174.113 111.939 167.192L89.2138 144.49C82.0677 137.351 78.0512 127.656 78.0512 117.545V100.043C78.0512 95.8163 74.6318 92.3903 70.4138 92.3903C66.1957 92.3903 62.7763 95.8163 62.7763 100.043V146.808C62.7763 164.035 48.8386 178 31.6456 178C27.9753 178 25 175.019 25 171.341C25 167.664 27.9753 164.683 31.6456 164.683C41.4981 164.683 49.4852 156.68 49.4852 146.808V100.043C49.4852 88.4615 58.8552 79.0732 70.4138 79.0732C81.9723 79.0732 91.3423 88.4615 91.3423 100.043V117.545C91.3423 124.117 93.953 130.419 98.598 135.059L121.323 157.761C125.761 162.194 131.771 164.683 138.037 164.683H154.114C158.308 164.683 161.709 161.276 161.709 157.073C161.709 152.87 158.308 149.463 154.114 149.463H146.699C139.208 149.463 132.022 146.487 126.717 141.188L117.78 132.26C110.634 125.121 106.617 115.426 106.617 105.315V57.1952C106.617 53.5177 109.593 50.5366 113.263 50.5366Z" fill="url(#paint0_linear_9_75)"/>
<defs>
<linearGradient id="paint0_linear_9_75" x1="175" y1="22" x2="25" y2="178" gradientUnits="userSpaceOnUse">
<stop stop-color="#01F5E7"/>
<stop offset="1" stop-color="#034694"/>
</linearGradient>
</defs>
</svg>
